<mxfile host="app.diagrams.net" agent="Mozilla/5.0 (Windows NT 10.0; Win64; x64) AppleWebKit/537.36 (KHTML, like Gecko) Chrome/129.0.0.0 Safari/537.36" version="24.7.17">
  <diagram name="Page-1" id="7e0a89b8-554c-2b80-1dc8-d5c74ca68de4">
    <mxGraphModel dx="1195" dy="622" grid="1" gridSize="10" guides="1" tooltips="1" connect="1" arrows="1" fold="1" page="1" pageScale="1" pageWidth="1100" pageHeight="850" background="none" math="0" shadow="0">
      <root>
        <mxCell id="0" />
        <mxCell id="1" parent="0" />
        <mxCell id="1BzWR8LxVXw42H8nVTa2-9" value="" style="shape=image;verticalLabelPosition=bottom;labelBackgroundColor=default;verticalAlign=top;aspect=fixed;imageAspect=0;image=https://api.circuit-diagram.org/w-components/circuitdiagram/385a441a-4d89-4f07-80d3-718c8276724a/1.0/render/_default/default.svg;clipPath=inset(28.67% 39.33% 29.11% 39.33%);flipV=0;flipH=0;" vertex="1" parent="1">
          <mxGeometry x="620" y="170" width="161.69245342595516" height="240" as="geometry" />
        </mxCell>
        <mxCell id="1BzWR8LxVXw42H8nVTa2-11" value="DHT-11" style="rounded=0;whiteSpace=wrap;html=1;" vertex="1" parent="1">
          <mxGeometry x="390" y="50" width="120" height="90" as="geometry" />
        </mxCell>
        <mxCell id="1BzWR8LxVXw42H8nVTa2-12" value="" style="endArrow=none;html=1;rounded=0;" edge="1" parent="1">
          <mxGeometry width="50" height="50" relative="1" as="geometry">
            <mxPoint x="430" y="170" as="sourcePoint" />
            <mxPoint x="430" y="140" as="targetPoint" />
          </mxGeometry>
        </mxCell>
        <mxCell id="1BzWR8LxVXw42H8nVTa2-13" value="" style="endArrow=none;html=1;rounded=0;fillColor=#76608a;strokeColor=#432D57;" edge="1" parent="1" target="1BzWR8LxVXw42H8nVTa2-11">
          <mxGeometry width="50" height="50" relative="1" as="geometry">
            <mxPoint x="450" y="170" as="sourcePoint" />
            <mxPoint x="440" y="140" as="targetPoint" />
          </mxGeometry>
        </mxCell>
        <mxCell id="1BzWR8LxVXw42H8nVTa2-14" value="" style="endArrow=none;html=1;rounded=0;entryX=0.75;entryY=1;entryDx=0;entryDy=0;" edge="1" parent="1">
          <mxGeometry width="50" height="50" relative="1" as="geometry">
            <mxPoint x="470" y="170" as="sourcePoint" />
            <mxPoint x="470" y="140" as="targetPoint" />
          </mxGeometry>
        </mxCell>
        <mxCell id="1BzWR8LxVXw42H8nVTa2-15" value="Wasserstandmess-&lt;div&gt;Sensormodul&lt;/div&gt;" style="rounded=0;whiteSpace=wrap;html=1;" vertex="1" parent="1">
          <mxGeometry x="390" y="470" width="120" height="90" as="geometry" />
        </mxCell>
        <mxCell id="1BzWR8LxVXw42H8nVTa2-17" value="" style="endArrow=none;html=1;rounded=0;entryX=0.75;entryY=1;entryDx=0;entryDy=0;" edge="1" parent="1">
          <mxGeometry width="50" height="50" relative="1" as="geometry">
            <mxPoint x="470" y="469" as="sourcePoint" />
            <mxPoint x="470" y="439" as="targetPoint" />
          </mxGeometry>
        </mxCell>
        <mxCell id="1BzWR8LxVXw42H8nVTa2-18" value="" style="endArrow=none;html=1;rounded=0;strokeColor=#000000;" edge="1" parent="1">
          <mxGeometry width="50" height="50" relative="1" as="geometry">
            <mxPoint x="430" y="470" as="sourcePoint" />
            <mxPoint x="430" y="440" as="targetPoint" />
          </mxGeometry>
        </mxCell>
        <mxCell id="1BzWR8LxVXw42H8nVTa2-19" value="" style="endArrow=none;html=1;rounded=0;" edge="1" parent="1">
          <mxGeometry width="50" height="50" relative="1" as="geometry">
            <mxPoint x="449.5" y="470" as="sourcePoint" />
            <mxPoint x="449.5" y="440" as="targetPoint" />
          </mxGeometry>
        </mxCell>
        <mxCell id="1BzWR8LxVXw42H8nVTa2-20" value="S" style="text;html=1;align=center;verticalAlign=middle;whiteSpace=wrap;rounded=0;" vertex="1" parent="1">
          <mxGeometry x="400" y="465" width="60" height="30" as="geometry" />
        </mxCell>
        <mxCell id="1BzWR8LxVXw42H8nVTa2-21" value="+" style="text;html=1;align=center;verticalAlign=middle;whiteSpace=wrap;rounded=0;" vertex="1" parent="1">
          <mxGeometry x="421" y="466" width="60" height="30" as="geometry" />
        </mxCell>
        <mxCell id="1BzWR8LxVXw42H8nVTa2-22" value="-" style="text;html=1;align=center;verticalAlign=middle;whiteSpace=wrap;rounded=0;" vertex="1" parent="1">
          <mxGeometry x="440" y="465" width="60" height="30" as="geometry" />
        </mxCell>
        <mxCell id="1BzWR8LxVXw42H8nVTa2-23" value="" style="verticalLabelPosition=bottom;shadow=0;dashed=0;align=center;html=1;verticalAlign=top;shape=mxgraph.electrical.opto_electronics.led_2;pointerEvents=1;rotation=90;" vertex="1" parent="1">
          <mxGeometry x="150" y="170" width="50" height="35" as="geometry" />
        </mxCell>
        <mxCell id="1BzWR8LxVXw42H8nVTa2-24" value="" style="verticalLabelPosition=bottom;shadow=0;dashed=0;align=center;html=1;verticalAlign=top;shape=mxgraph.electrical.opto_electronics.led_2;pointerEvents=1;rotation=90;" vertex="1" parent="1">
          <mxGeometry x="150" y="438" width="50" height="35" as="geometry" />
        </mxCell>
        <mxCell id="1BzWR8LxVXw42H8nVTa2-25" value="" style="pointerEvents=1;verticalLabelPosition=bottom;shadow=0;dashed=0;align=center;html=1;verticalAlign=top;shape=mxgraph.electrical.plc_ladder.output_2;rotation=90;" vertex="1" parent="1">
          <mxGeometry x="70" y="290" width="100" height="50" as="geometry" />
        </mxCell>
        <mxCell id="1BzWR8LxVXw42H8nVTa2-26" value="&lt;span style=&quot;font-weight: normal;&quot;&gt;Bildschirm&lt;/span&gt;" style="text;html=1;align=center;verticalAlign=middle;whiteSpace=wrap;rounded=0;fontStyle=1" vertex="1" parent="1">
          <mxGeometry x="20" y="300" width="60" height="30" as="geometry" />
        </mxCell>
        <mxCell id="1BzWR8LxVXw42H8nVTa2-27" value="LED Rot&lt;span style=&quot;color: rgba(0, 0, 0, 0); font-family: monospace; font-size: 0px; text-align: start; text-wrap: nowrap;&quot;&gt;%3CmxGraphModel%3E%3Croot%3E%3CmxCell%20id%3D%220%22%2F%3E%3CmxCell%20id%3D%221%22%20parent%3D%220%22%2F%3E%3CmxCell%20id%3D%222%22%20value%3D%22%22%20style%3D%22verticalLabelPosition%3Dbottom%3Bshadow%3D0%3Bdashed%3D0%3Balign%3Dcenter%3Bhtml%3D1%3BverticalAlign%3Dtop%3Bshape%3Dmxgraph.electrical.opto_electronics.led_2%3BpointerEvents%3D1%3B%22%20vertex%3D%221%22%20parent%3D%221%22%3E%3CmxGeometry%20x%3D%22100%22%20y%3D%22140%22%20width%3D%22100%22%20height%3D%2270%22%20as%3D%22geometry%22%2F%3E%3C%2FmxCell%3E%3C%2Froot%3E%3C%2FmxGraphModel%3E&lt;/span&gt;" style="text;html=1;align=center;verticalAlign=middle;whiteSpace=wrap;rounded=0;" vertex="1" parent="1">
          <mxGeometry x="73" y="175" width="60" height="30" as="geometry" />
        </mxCell>
        <mxCell id="1BzWR8LxVXw42H8nVTa2-28" value="LED Blau" style="text;html=1;align=center;verticalAlign=middle;whiteSpace=wrap;rounded=0;" vertex="1" parent="1">
          <mxGeometry x="76" y="450" width="60" height="30" as="geometry" />
        </mxCell>
        <mxCell id="1BzWR8LxVXw42H8nVTa2-29" value="" style="pointerEvents=1;verticalLabelPosition=bottom;shadow=0;dashed=0;align=center;html=1;verticalAlign=top;shape=mxgraph.electrical.resistors.resistor_2;" vertex="1" parent="1">
          <mxGeometry x="250" y="140" width="100" height="20" as="geometry" />
        </mxCell>
        <mxCell id="1BzWR8LxVXw42H8nVTa2-30" value="" style="pointerEvents=1;verticalLabelPosition=bottom;shadow=0;dashed=0;align=center;html=1;verticalAlign=top;shape=mxgraph.electrical.resistors.resistor_2;" vertex="1" parent="1">
          <mxGeometry x="250" y="488" width="100" height="20" as="geometry" />
        </mxCell>
        <mxCell id="1BzWR8LxVXw42H8nVTa2-31" value="" style="pointerEvents=1;verticalLabelPosition=bottom;shadow=0;dashed=0;align=center;html=1;verticalAlign=top;shape=mxgraph.electrical.resistors.resistor_2;" vertex="1" parent="1">
          <mxGeometry x="450" y="320" width="100" height="20" as="geometry" />
        </mxCell>
        <mxCell id="1BzWR8LxVXw42H8nVTa2-32" value="" style="endArrow=none;html=1;rounded=0;fillColor=#1ba1e2;strokeColor=#006EAF;" edge="1" parent="1">
          <mxGeometry width="50" height="50" relative="1" as="geometry">
            <mxPoint x="470" y="170" as="sourcePoint" />
            <mxPoint x="630" y="290" as="targetPoint" />
          </mxGeometry>
        </mxCell>
        <mxCell id="1BzWR8LxVXw42H8nVTa2-35" value="" style="endArrow=none;html=1;rounded=0;fillColor=#e51400;strokeColor=#B20000;entryX=0;entryY=0.5;entryDx=0;entryDy=0;entryPerimeter=0;" edge="1" parent="1" target="1BzWR8LxVXw42H8nVTa2-31">
          <mxGeometry width="50" height="50" relative="1" as="geometry">
            <mxPoint x="449.5" y="440" as="sourcePoint" />
            <mxPoint x="451" y="330" as="targetPoint" />
          </mxGeometry>
        </mxCell>
        <mxCell id="1BzWR8LxVXw42H8nVTa2-36" value="" style="endArrow=none;html=1;rounded=0;fillColor=#e51400;strokeColor=#B20000;" edge="1" parent="1">
          <mxGeometry width="50" height="50" relative="1" as="geometry">
            <mxPoint x="430" y="170" as="sourcePoint" />
            <mxPoint x="630" y="280" as="targetPoint" />
          </mxGeometry>
        </mxCell>
        <mxCell id="1BzWR8LxVXw42H8nVTa2-38" value="" style="endArrow=none;html=1;rounded=0;fillColor=#76608a;strokeColor=#432D57;" edge="1" parent="1">
          <mxGeometry width="50" height="50" relative="1" as="geometry">
            <mxPoint x="450" y="170" as="sourcePoint" />
            <mxPoint x="840" y="170" as="targetPoint" />
          </mxGeometry>
        </mxCell>
        <mxCell id="1BzWR8LxVXw42H8nVTa2-40" value="" style="endArrow=none;html=1;rounded=0;fillColor=#647687;strokeColor=#314354;" edge="1" parent="1">
          <mxGeometry width="50" height="50" relative="1" as="geometry">
            <mxPoint x="840" y="370" as="sourcePoint" />
            <mxPoint x="840" y="170" as="targetPoint" />
          </mxGeometry>
        </mxCell>
        <mxCell id="1BzWR8LxVXw42H8nVTa2-41" value="" style="endArrow=none;html=1;rounded=0;fillColor=#76608a;strokeColor=#432D57;" edge="1" parent="1">
          <mxGeometry width="50" height="50" relative="1" as="geometry">
            <mxPoint x="770" y="370" as="sourcePoint" />
            <mxPoint x="840" y="370" as="targetPoint" />
          </mxGeometry>
        </mxCell>
        <mxCell id="1BzWR8LxVXw42H8nVTa2-43" style="edgeStyle=orthogonalEdgeStyle;rounded=0;orthogonalLoop=1;jettySize=auto;html=1;exitX=1;exitY=0.5;exitDx=0;exitDy=0;exitPerimeter=0;entryX=0.022;entryY=0.442;entryDx=0;entryDy=0;entryPerimeter=0;fillColor=#e51400;strokeColor=#B20000;endArrow=none;endFill=0;" edge="1" parent="1" source="1BzWR8LxVXw42H8nVTa2-31" target="1BzWR8LxVXw42H8nVTa2-9">
          <mxGeometry relative="1" as="geometry" />
        </mxCell>
        <mxCell id="1BzWR8LxVXw42H8nVTa2-44" value="" style="endArrow=none;html=1;rounded=0;fillColor=#1ba1e2;strokeColor=#006EAF;" edge="1" parent="1">
          <mxGeometry width="50" height="50" relative="1" as="geometry">
            <mxPoint x="470" y="440" as="sourcePoint" />
            <mxPoint x="630" y="290" as="targetPoint" />
          </mxGeometry>
        </mxCell>
        <mxCell id="1BzWR8LxVXw42H8nVTa2-45" value="" style="endArrow=none;html=1;rounded=0;fillColor=#a0522d;strokeColor=#6D1F00;" edge="1" parent="1">
          <mxGeometry width="50" height="50" relative="1" as="geometry">
            <mxPoint x="430" y="440" as="sourcePoint" />
            <mxPoint x="630" y="333" as="targetPoint" />
          </mxGeometry>
        </mxCell>
        <mxCell id="1BzWR8LxVXw42H8nVTa2-46" value="" style="endArrow=none;html=1;rounded=0;entryX=0.029;entryY=0.393;entryDx=0;entryDy=0;entryPerimeter=0;exitX=1;exitY=0.5;exitDx=0;exitDy=0;exitPerimeter=0;fillColor=#008a00;strokeColor=#005700;" edge="1" parent="1" source="1BzWR8LxVXw42H8nVTa2-29" target="1BzWR8LxVXw42H8nVTa2-9">
          <mxGeometry width="50" height="50" relative="1" as="geometry">
            <mxPoint x="310" y="270" as="sourcePoint" />
            <mxPoint x="360" y="220" as="targetPoint" />
          </mxGeometry>
        </mxCell>
        <mxCell id="1BzWR8LxVXw42H8nVTa2-49" value="" style="endArrow=none;html=1;rounded=0;exitX=0;exitY=0.57;exitDx=0;exitDy=0;exitPerimeter=0;fillColor=#008a00;strokeColor=#005700;" edge="1" parent="1" source="1BzWR8LxVXw42H8nVTa2-23">
          <mxGeometry width="50" height="50" relative="1" as="geometry">
            <mxPoint x="200" y="200" as="sourcePoint" />
            <mxPoint x="250" y="150" as="targetPoint" />
          </mxGeometry>
        </mxCell>
        <mxCell id="1BzWR8LxVXw42H8nVTa2-50" value="" style="endArrow=none;html=1;rounded=0;exitX=0;exitY=0.5;exitDx=0;exitDy=0;exitPerimeter=0;fillColor=#008a00;strokeColor=#005700;" edge="1" parent="1" source="1BzWR8LxVXw42H8nVTa2-25">
          <mxGeometry width="50" height="50" relative="1" as="geometry">
            <mxPoint x="123" y="265" as="sourcePoint" />
            <mxPoint x="173" y="210" as="targetPoint" />
          </mxGeometry>
        </mxCell>
        <mxCell id="1BzWR8LxVXw42H8nVTa2-51" value="" style="endArrow=none;html=1;rounded=0;exitX=0;exitY=0.57;exitDx=0;exitDy=0;exitPerimeter=0;entryX=1;entryY=0.5;entryDx=0;entryDy=0;entryPerimeter=0;fillColor=#008a00;strokeColor=#005700;" edge="1" parent="1" source="1BzWR8LxVXw42H8nVTa2-24" target="1BzWR8LxVXw42H8nVTa2-25">
          <mxGeometry width="50" height="50" relative="1" as="geometry">
            <mxPoint x="70" y="430" as="sourcePoint" />
            <mxPoint x="120" y="380" as="targetPoint" />
          </mxGeometry>
        </mxCell>
        <mxCell id="1BzWR8LxVXw42H8nVTa2-52" value="" style="endArrow=none;html=1;rounded=0;exitX=1;exitY=0.57;exitDx=0;exitDy=0;exitPerimeter=0;entryX=0;entryY=0.5;entryDx=0;entryDy=0;entryPerimeter=0;fillColor=#008a00;strokeColor=#005700;" edge="1" parent="1" source="1BzWR8LxVXw42H8nVTa2-24" target="1BzWR8LxVXw42H8nVTa2-30">
          <mxGeometry width="50" height="50" relative="1" as="geometry">
            <mxPoint x="190" y="520" as="sourcePoint" />
            <mxPoint x="240" y="470" as="targetPoint" />
          </mxGeometry>
        </mxCell>
        <mxCell id="1BzWR8LxVXw42H8nVTa2-53" value="" style="endArrow=none;html=1;rounded=0;entryX=0.029;entryY=0.437;entryDx=0;entryDy=0;entryPerimeter=0;exitX=1;exitY=0.5;exitDx=0;exitDy=0;exitPerimeter=0;fillColor=#008a00;strokeColor=#005700;" edge="1" parent="1" source="1BzWR8LxVXw42H8nVTa2-30" target="1BzWR8LxVXw42H8nVTa2-9">
          <mxGeometry width="50" height="50" relative="1" as="geometry">
            <mxPoint x="350" y="500" as="sourcePoint" />
            <mxPoint x="400" y="450" as="targetPoint" />
          </mxGeometry>
        </mxCell>
      </root>
    </mxGraphModel>
  </diagram>
</mxfile>
